<?xml version="1.0" encoding="UTF-8"?>
<svg enable-background="new 0 0 800 800" version="1.1" viewBox="0 0 800 800" xml:space="preserve" xmlns="http://www.w3.org/2000/svg"><g>
<path d="m343 801c-7.33-1.65-14.5-2.19-21.2-5.11-12.5-5.47-22.2-14-28.9-25.9-15-26.4-30-52.7-45-79.1-27.2-47.9-54.5-95.9-81.7-144-33.3-58.5-66.6-117-99.8-175-14.1-24.9-12-51 5.39-72.2 4.63-5.62 10.4-9.83 16.6-13.5 45-26.4 90-52.7 135-79.1 36.2-21.2 72.4-42.5 109-63.7 30.4-17.8 66.1-8.22 83.5 22.4 43.8 77.2 87.7 154 132 232 31.4 55.3 63 111 94.4 166 14 24.6 11.8 51-5.7 72.1-6.76 8.14-15.9 13-24.8 18.2-68.4 40.1-137 80.2-205 120-8.91 5.22-17.9 10.3-26.7 15.7-9.8 6.08-20.2 10-32.1 11.3-1.42 0.164-2.49 0.164-3.95 0.164m-162-518c-16.8 9.85-33.7 19.6-50.5 29.6-15.9 9.41-20.7 26.5-11.6 42.6 23.3 41.4 46.8 82.6 70.3 124 27.2 47.9 54.5 95.9 81.8 144 19.8 34.8 39.4 69.6 59.3 104 9.76 17 26.3 21.1 43.1 11.3 68.6-40.2 137-80.4 206-121 18.3-10.7 22.7-27.5 12.2-45.9-45.5-79.9-90.9-160-136-240-24.6-43.3-49.2-86.6-74-130-9.56-16.7-26.7-20.8-43.3-11.1-52 30.5-104 61-157 91.9z"/>
<path d="m555 48.2c10.6 12.6 15.6 26.7 15.6 43-0.126 97-0.0545 194-0.0705 291-2.45e-4 1.62 0.401 3.32-0.522 4.88-1.6 0.297-1.94-1.06-2.46-1.98-13.9-24.5-27.8-49-41.8-73.4-2.07-3.61-2.95-7.2-2.95-11.3 0.0835-65.3 0.0737-131 0.0536-196-0.00452-14.8-8.48-26.3-22.1-30.3-3.12-0.925-6.27-0.837-9.41-0.838-80-0.0234-160 0.214-240-0.157-19.7-0.0912-31.5 16.9-31.1 31.3 0.657 23.8 0.0735 47.7 0.256 71.5 0.0332 4.34-1.17 6.92-5.11 9.14-14.4 8.1-28.5 16.6-42.7 25-1.52 0.886-2.98 2.21-5.06 1.73-1.26-1.81-0.761-3.87-0.763-5.79-0.0292-39-0.0643-78 7.78e-4 -117 0.0563-33.7 26.5-60.1 60.4-60.1 94-0.0471 188-0.0121 282-0.0178 17.9-0.00108 33.1 6.31 45.8 19.5z"/>
<path d="m614 135c-5.53-1.48-10.6-2.98-15.8-4.22-3.26-0.781-4.61-2.38-4.55-5.9 0.199-11.3 0.18-22.7 0.0249-34-0.077-5.62-0.635-11.2-0.97-16.8 1.36-1.24 2.68-0.646 3.91-0.312 35.1 9.56 70.4 18.8 105 28.8 36.7 10.5 61.9 45 62.6 83.1 0.3 17.4-5.27 33.4-9.55 49.8-24.8 94.6-49.8 189-74.8 284-3.27 12.4-6.54 24.7-9.83 37.1-0.461 1.73-1.04 3.43-1.51 4.96-1.39 0.199-1.92-0.41-2.34-1.16-11.3-20.2-22.6-40.4-34-60.6-1.68-2.98-2.04-5.71-1.16-9.02 10.3-38.7 20.4-77.5 30.7-116 10.5-40 21.1-80 31.6-120 4.88-18.5 9.35-37.1 14.8-55.4 6.96-23.4-7.77-40.9-25.7-45.3-22.9-5.6-45.6-12.3-68.8-18.5z"/>
</g></svg>
