<?xml version="1.0" encoding="UTF-8"?>
<svg width="1920" height="1080" version="1.1" viewBox="0 0 508 286" xmlns="http://www.w3.org/2000/svg">
 <text transform="scale(.265)" font-family="'Albertus Extra Bold'" font-size="40px" style="line-height:1.25;shape-inside:url(#rect2905);white-space:pre" xml:space="preserve"/>
 <text x="23.6348" y="25.691654" font-family="'URW Bookman'" font-size="50.8px" letter-spacing="0px" stroke-width=".265" word-spacing="0px" style="line-height:1.25" xml:space="preserve"><tspan x="23.6348" y="25.691654" font-size="50.8px" stroke-width=".265"/></text>
 <g font-family="'Harlow Solid Italic'" letter-spacing="0px" word-spacing="0px">
  <text transform="scale(1.04 .965)" x="41.851189" y="37.616482" fill="#0e6eba" font-size="151px" stroke="#09426f" stroke-width="1.5" style="line-height:1.25" xml:space="preserve"><tspan x="41.851189" y="37.616482" fill="#0e6eba" font-family="'Harlow Solid Italic'" font-size="151px" stroke="#09426f" stroke-width="1.5">?</tspan></text>
  <text transform="matrix(.916 -.293 .229 1.02 0 0)" x="403.9014" y="301.46893" fill="#0e6eba" font-size="195px" stroke="#09426f" stroke-width="1.93" style="line-height:1.25" xml:space="preserve"><tspan x="403.9014" y="301.46893" fill="#0e6eba" font-family="'Harlow Solid Italic'" font-size="195px" stroke="#09426f" stroke-width="1.93">?</tspan></text>
  <text transform="scale(1.04 .965)" x="178.52283" y="240.43867" fill="#2595ef" font-size="151px" stroke="#0c5997" stroke-width="1.5" style="line-height:1.25" xml:space="preserve"><tspan x="178.52283" y="240.43867" fill="#2595ef" font-family="'Harlow Solid Italic'" font-size="151px" stroke="#0c5997" stroke-width="1.5">?</tspan></text>
  <text transform="matrix(.897 .518 -.483 .836 0 0)" x="110.32835" y="208.33447" fill="#0e6eba" font-size="151px" stroke="#09426f" stroke-width="1.5" style="line-height:1.25" xml:space="preserve"><tspan x="110.32835" y="208.33447" fill="#0e6eba" font-family="'Harlow Solid Italic'" font-size="151px" stroke="#09426f" stroke-width="1.5">?</tspan></text>
 </g>
 <g fill="#e65214" font-family="'Harlow Solid Italic'" letter-spacing="0px" stroke="#862e0f" word-spacing="0px">
  <text transform="matrix(.743 -.721 .693 .672 0 0)" x="-60.228573" y="300.99222" font-size="197px" stroke-width="1.95" style="line-height:1.25" xml:space="preserve"><tspan x="-60.228573" y="300.99222" fill="#e65214" font-family="'Harlow Solid Italic'" font-size="197px" stroke="#862e0f" stroke-width="1.95">?</tspan></text>
  <text transform="matrix(.255 -1 .929 .262 0 0)" x="-80.931938" y="424.61121" font-size="103px" stroke-width="1.02" style="line-height:1.25" xml:space="preserve"><tspan x="-80.931938" y="424.61121" fill="#e65214" font-family="'Harlow Solid Italic'" font-size="103px" stroke="#862e0f" stroke-width="1.02">?</tspan></text>
  <text transform="matrix(.889 .531 -.47 .844 0 0)" x="421.65424" y="39.707294" font-size="197px" stroke-width="1.95" style="line-height:1.25" xml:space="preserve"><tspan x="421.65424" y="39.707294" fill="#e65214" font-family="'Harlow Solid Italic'" font-size="197px" stroke="#862e0f" stroke-width="1.95">?</tspan></text>
  <text transform="matrix(.721 .743 -.672 .693 0 0)" x="167.73901" y="-109.21647" font-size="197px" stroke-width="1.95" style="line-height:1.25" xml:space="preserve"><tspan x="167.73901" y="-109.21647" fill="#e65214" font-family="'Harlow Solid Italic'" font-size="197px" stroke="#862e0f" stroke-width="1.95">?</tspan></text>
 </g>
 <g fill="#10ab67" font-family="'Harlow Solid Italic'" letter-spacing="0px" stroke="#0a6843" word-spacing="0px">
  <text transform="scale(1.04 .965)" x="85.394531" y="100.36989" font-size="151px" stroke-width="1.5" style="line-height:1.25" xml:space="preserve"><tspan x="85.394531" y="100.36989" fill="#10ab67" font-family="'Harlow Solid Italic'" font-size="151px" stroke="#0a6843" stroke-width="1.5">?</tspan></text>
  <text transform="matrix(-.899 -.452 .546 -.838 0 0)" x="-438.11386" y="140.06218" font-size="164px" stroke-width="1.63" style="line-height:1.25" xml:space="preserve"><tspan x="-438.11386" y="140.06218" fill="#10ab67" font-family="'Harlow Solid Italic'" font-size="164px" stroke="#0a6843" stroke-width="1.63">?</tspan></text>
  <text transform="matrix(.732 -.732 .683 .683 0 0)" x="-33.53236" y="429.6965" font-size="151px" stroke-width="1.5" style="line-height:1.25" xml:space="preserve"><tspan x="-33.53236" y="429.6965" fill="#10ab67" font-family="'Harlow Solid Italic'" font-size="151px" stroke="#0a6843" stroke-width="1.5">?</tspan></text>
 </g>
 <text x="198.40237" y="62.211796" font-family="'Arial Rounded MT Bold'" font-size="25.4px" letter-spacing="0px" stroke-width=".265" word-spacing="0px" style="line-height:1.25" xml:space="preserve"><tspan x="198.40237" y="62.211796" font-family="'Arial Rounded MT Bold'" stroke-width=".265"/></text>
 <g fill="#a41684" font-family="'Arial Rounded MT Bold'" letter-spacing="0px" stroke="#6b0e56" word-spacing="0px">
  <text transform="matrix(.902 -.48 .521 .832 0 0)" x="-36.659439" y="141.69777" font-size="123px" stroke-width="1.75" style="line-height:1.25" xml:space="preserve"><tspan x="-36.659439" y="141.69777" fill="#a41684" font-family="'Arial Rounded MT Bold'" stroke="#6b0e56" stroke-width="1.75">?</tspan></text>
  <text transform="matrix(.816 -.531 .471 .919 0 0)" x="300.86829" y="348.72687" font-size="181px" stroke-width="2.56" style="line-height:1.25" xml:space="preserve"><tspan x="300.86829" y="348.72687" fill="#a41684" font-family="'Arial Rounded MT Bold'" stroke="#6b0e56" stroke-width="2.56">?</tspan></text>
  <text transform="matrix(.749 -.695 .72 .667 0 0)" x="53.349583" y="333.15854" font-size="146px" stroke-width="2.07" style="line-height:1.25" xml:space="preserve"><tspan x="53.349583" y="333.15854" fill="#a41684" font-family="'Arial Rounded MT Bold'" stroke="#6b0e56" stroke-width="2.07">?</tspan></text>
 </g>
 <g fill="#e32cb9" font-family="'Arial Rounded MT Bold'" letter-spacing="0px" stroke="#b0178e" word-spacing="0px">
  <text transform="matrix(-.986 -.248 .271 -.946 0 0)" x="-203.58022" y="-152.4187" font-size="139px" stroke-width="1.97" style="line-height:1.25" xml:space="preserve"><tspan x="-203.58022" y="-152.4187" fill="#e32cb9" font-family="'Arial Rounded MT Bold'" stroke="#b0178e" stroke-width="1.97">?</tspan></text>
  <text transform="matrix(-.872 .522 -.478 -.861 0 0)" x="-191.47568" y="-367.89029" font-size="139px" stroke-width="1.97" style="line-height:1.25" xml:space="preserve"><tspan x="-191.47568" y="-367.89029" fill="#e32cb9" font-family="'Arial Rounded MT Bold'" stroke="#b0178e" stroke-width="1.97">?</tspan></text>
  <text transform="matrix(.664 .777 -.644 .752 0 0)" x="277.83606" y="-150.02341" font-size="82.8px" stroke-width="1.17" style="line-height:1.25" xml:space="preserve"><tspan x="277.83606" y="-150.02341" fill="#e32cb9" font-family="'Arial Rounded MT Bold'" stroke="#b0178e" stroke-width="1.17">?</tspan></text>
 </g>
 <g fill="#f9ef11" font-family="'Arial Rounded MT Bold'" letter-spacing="0px" stroke="#b9b105" word-spacing="0px">
  <g font-size="135px" stroke-width="1.91">
   <text transform="matrix(-.886 -.489 .512 -.846 0 0)" x="-170.97415" y="-43.562019" style="line-height:1.25" xml:space="preserve"><tspan x="-170.97415" y="-43.562019" fill="#f9ef11" font-family="'Arial Rounded MT Bold'" stroke="#b9b105" stroke-width="1.91">?</tspan></text>
   <text transform="matrix(-1.01 .0201 .0201 -.989 0 0)" x="-224.22491" y="-24.807232" style="line-height:1.25" xml:space="preserve"><tspan x="-224.22491" y="-24.807232" fill="#f9ef11" font-family="'Arial Rounded MT Bold'" stroke="#b9b105" stroke-width="1.91">?</tspan></text>
   <text transform="matrix(-1.01 .0201 .0201 -.989 0 0)" x="-394.37341" y="54.583134" style="line-height:1.25" xml:space="preserve"><tspan x="-394.37341" y="54.583134" fill="#f9ef11" font-family="'Arial Rounded MT Bold'" stroke="#b9b105" stroke-width="1.91">?</tspan></text>
   <text transform="matrix(-.886 -.489 .512 -.846 0 0)" x="-320.79126" y="-111.31599" style="line-height:1.25" xml:space="preserve"><tspan x="-320.79126" y="-111.31599" fill="#f9ef11" font-family="'Arial Rounded MT Bold'" stroke="#b9b105" stroke-width="1.91">?</tspan></text>
  </g>
  <text transform="matrix(.507 .987 -.762 .489 0 0)" x="318.54584" y="-323.07922" font-size="62.5px" stroke-width=".886" style="line-height:1.25" xml:space="preserve"><tspan x="318.54584" y="-323.07922" fill="#f9ef11" font-family="'Arial Rounded MT Bold'" stroke="#b9b105" stroke-width=".886">?</tspan></text>
  <text transform="matrix(-.703 .722 -.692 -.711 0 0)" x="-130.57658" y="-279.46588" font-size="147px" stroke-width="2.09" style="line-height:1.25" xml:space="preserve"><tspan x="-130.57658" y="-279.46588" fill="#f9ef11" font-family="'Arial Rounded MT Bold'" stroke="#b9b105" stroke-width="2.09">?</tspan></text>
 </g>
 <text transform="matrix(-.932 -.288 .233 -1 0 0)" x="-475.16751" y="-25.89843" fill="#2595ef" font-family="'Harlow Solid Italic'" font-size="165px" letter-spacing="0px" stroke="#0c5997" stroke-width="1.64" word-spacing="0px" style="line-height:1.25" xml:space="preserve"><tspan x="-475.16751" y="-25.89843" fill="#2595ef" font-family="'Harlow Solid Italic'" font-size="165px" stroke="#0c5997" stroke-width="1.64">?</tspan></text>
</svg>
