<?xml version="1.0" encoding="UTF-8"?>
<svg width="40" height="40" fill="none" version="1.1" viewBox="0 0 40 40" xmlns="http://www.w3.org/2000/svg">
 <g clip-path="url(#clip0_710_6221)">
  <path d="m29.6 20.227c0-0.7091-0.0636-1.3909-0.1818-2.0455h-9.4182v3.8682h5.3818c-0.2318 1.25-0.9363 2.3091-1.9954 3.0182v2.5091h3.2318c1.8909-1.7409 2.9818-4.3046 2.9818-7.35z" fill="#4285F4"/>
  <path d="m20 30c2.7 0 4.9636-0.8955 6.6181-2.4227l-3.2318-2.5091c-0.8954 0.6-2.0409 0.9545-3.3863 0.9545-2.6046 0-4.8091-1.7591-5.5955-4.1227h-3.3409v2.5909c1.6455 3.2682 5.0273 5.5091 8.9364 5.5091z" fill="#34A853"/>
  <path d="m14.404 21.9c-0.2-0.6-0.3136-1.2409-0.3136-1.9s0.1136-1.3 0.3136-1.9v-2.5909h-3.3409c-0.6772 1.35-1.0636 2.8773-1.0636 4.4909s0.3864 3.1409 1.0636 4.4909l3.3409-2.5909z" fill="#FBBC04"/>
  <path d="m20 13.977c1.4681 0 2.7863 0.5045 3.8227 1.4954l2.8682-2.8682c-1.7318-1.6136-3.9955-2.6045-6.6909-2.6045-3.9091 0-7.2909 2.2409-8.9364 5.5091l3.3409 2.5909c0.7864-2.3636 2.9909-4.1227 5.5955-4.1227z" fill="#E94235"/>
 </g>
 <defs>
  <clipPath id="clip0_710_6221">
   <rect transform="translate(10 10)" width="40" height="40" fill="#fff"/>
  </clipPath>
 </defs>
</svg>
