<?xml version="1.0" encoding="UTF-8"?><svg width="655" height="655" enable-background="new 0 0 1042 1042" version="1.1" viewBox="0 0 655 655" xml:space="preserve" xmlns="http://www.w3.org/2000/svg"><g><path d="m296 2e-5c-7e-3 -1e-5 -0.01 1e-5 -0.02 0-3-4e-3 -6 0.8-9 3-22 16-45 31-67 47-10 7-19 14-29 21 1 0.8 2 1 2 2 32 20 64 41 95 61 2 1 5 2 7 2 0.2-3e-5 0.4 3e-5 0.6 0z" fill="#dd0c2b"/><path d="m296 0.06-0.6 135c118-0.01 236-0.05 354 0.1 5 7e-3 6-2 6-6-0.2-41-0.2-82 0.03-123 0.02-5-1-6-6-6-46 0.2-91 0.1-137 0.1-72-9e-5 -144 0.02-216-0.05z" fill="#5b0ef2"/><path d="m296 173c-7e-3 -1e-5 -0.01 1e-5 -0.02 0-3-4e-3 -6 0.8-9 3-22 16-45 31-67 47-10 7-19 14-29 21 1 0.8 2 1 2 2 32 20 64 41 95 61 2 1 5 2 7 2 0.2-3e-5 0.4 3e-5 0.6 0z" fill="#0b6de0"/><path d="m296 173-0.6 135c118-0.01 236-0.05 354 0.1 5 7e-3 6-2 6-6-0.2-41-0.2-82 0.03-123 0.02-5-1-6-6-6-46 0.2-91 0.1-137 0.1-72-9e-5 -144 0.02-216-0.05z" fill="#5b0ef2"/><path d="m296 346c-7e-3 -1e-5 -0.01 1e-5 -0.02 0-3-4e-3 -6 0.8-9 3-22 16-45 31-67 47-10 7-19 14-29 21 1 0.8 2 1 2 2 32 20 64 41 95 61 2 1 5 2 7 2 0.2-3e-5 0.4 3e-5 0.6 0z" fill="#28ad06"/><path d="m296 346-0.6 135c118-0.01 236-0.05 354 0.1 5 7e-3 6-2 6-6-0.2-41-0.2-82 0.03-123 0.02-5-1-6-6-6-46 0.2-91 0.1-137 0.1-72-9e-5 -144 0.02-216-0.05z" fill="#5b0ef2"/><path d="m296 520c-7e-3 -1e-5 -0.01 1e-5 -0.02 0-3-4e-3 -6 0.8-9 3-22 16-45 31-67 47-10 7-19 14-29 21 1 0.8 2 1 2 2 32 20 64 41 95 61 2 1 5 2 7 2 0.2-3e-5 0.4 3e-5 0.6 0z" fill="#fab900"/><path d="m296 520-0.6 135c118-0.01 236-0.05 354 0.1 5 7e-3 6-2 6-6-0.2-41-0.2-82 0.03-123 0.02-5-1-6-6-6-46 0.2-91 0.1-137 0.1-72-9e-5 -144 0.02-216-0.05z" fill="#5b0ef2"/></g><g fill="#f2f2f2"><g><path d="m103 202c33 15 44 50 27 84-6 12-15 22-24 31-14 15-22 31-21 52 0.2 3-1 4-4 4-14-0.1-28-0.2-43 0.05-4 0.07-5-1-5-5-2-24 6-45 21-63 6-7 13-15 18-23 3-6 6-12 6-19-0.09-10-5-17-15-20-16-5-32-1-46 7-5 2-5 1-6-3-3-11-7-22-10-33-0.9-3-0.8-4 2-6 32-15 66-19 100-7z"/><path d="m29 437c-7-20-0.3-39 17-47 16-7 35-2 44 12 10 15 7 36-6 47-13 11-34 11-47 0.05-4-3-6-7-8-12z"/><path d="m355 444c6 0.1 12-2 17-4 4-2 7-3 11-4 5-2 7 0.7 6 6-1 5-4 9-8 11-23 17-64 2-70-25-2-7-1-13 0.3-20 6-22 27-41 48-43 9-0.6 16 2 21 9 0.7 1 2 2 0.8 3-0.7 1-2 0.6-3 0.5-2-0.3-5-0.6-7-1-11-3-20 1-28 8-6 5-11 11-15 19-9 19-0.07 36 21 40 1 0.2 3 0.3 5 0.4z"/><path d="m414 454c-2 6-6 8-10 6-5-2-6-5-4-9 1-4 5-6 9-5 4 0.8 5 4 6 8z"/></g><path d="m329 20c-0.4-0.03-0.8-0.03-1 4e-3 -3 0.3-6 2-6 6-1 4-2 8-3 12-3 14-2 28-5 41-2 8-4 16-3 25 0.07 1-0.3 3 1 4 1 0.4 2-0.5 3-1 4-3 6-8 8-13 2-9 2-9 11-9 7-0.3 13 2 15 10 0.6 2 2 5 3 7 1 3 2 5 3 8 2 6 6 8 10 6 5-2 6-6 4-12-10-26-24-51-34-78-1-3-3-4-6-5zm0.6 32c3 6 5 12 8 18-4 0.6-7 1-11 1 0.4-6 1-13 2-19 0.3-0.1 0.6-0.2 0.9-0.3z"/><path d="m387 102c2 2 3 4 3 6-0.1 5-4 8-8 7-4-0.5-7-4-6-9 0.7-4 5-7 9-6 0.9 0.2 2 0.8 3 1z" stroke-width=".8"/><path d="m332 193c-10 0.1-21 8-22 17-2 21 2 42 8 63 4 11 14 15 22 15 12-0.1 24-4 34-11 18-13 17-35-2-47-4-2-8-4-13-5-3-0.6-8-0.01-10-2-2-2 0.9-7 0.8-10-0.04-11-7-19-17-20-0.7-0.06-1-0.08-2-0.08zm-3 10c2 0.01 4 0.5 6 2 3 2 4 5 3 8-1 9-5 14-15 17-0.5-5-1-11-2-16-0.06-0.7-0.1-0.8-0.09-1 0.4-3-3-6 0.5-8 2-1 4-2 6-2zm18 33c11-0.2 24 7 27 17 1 4-0.4 8-4 10-10 8-21 12-34 10-3-0.4-5-2-5-5-2-7-3-15-5-23-0.5-3 0.3-5 4-5 3-0.6 5-2 7-3 3-2 6-3 10-3z"/><path d="m401 273c5 1 7 4 7 9-0.5 4-3 6-7 6-4 0.1-7-2-7-6-1-5 2-8 8-9z"/><path d="m336 540c-5 0.1-11 2-16 5-0.8 0.5-2 1-3 0.5-4-2-5 0.5-6 4-0.5 3-0.9 7-1 10-0.5 11 0.9 23 2 34 0.2 10-0.5 20 2 30 2 10 6 13 16 11 19-4 33-14 44-30 6-8 9-18 7-28-4-14-13-24-25-31-7-4-13-6-20-6zm-10 10c1 0.01 2 0.02 3 0.1 12 1 22 6 31 15 10 11 11 25 1 36-9 10-21 15-33 21-3 1-2-1-3-3-2-15-4-30-3-45 0.2-6 0.3-12-1-18-1-5 0.7-6 5-6z"/><path d="m402 626c-2 5-6 6-10 4-4-2-5-5-4-9 1-4 5-6 9-5 5 0.9 6 5 5 10z"/></g><path d="m319 74c-0.03-8e-4 0.3 0.1 0.3 0.1s-0.08 0.06-0.2-6e-4c-0.07-0.06-0.1-0.1-0.1-0.1z" fill="#808000"/></svg>